<?xml version="1.0" standalone="no"?>
<!DOCTYPE svg PUBLIC "-//W3C//DTD SVG 20010904//EN"
 "http://www.w3.org/TR/2001/REC-SVG-20010904/DTD/svg10.dtd">
<svg version="1.0" xmlns="http://www.w3.org/2000/svg"
 width="640.000000pt" height="640.000000pt" viewBox="0 0 640.000000 640.000000"
 preserveAspectRatio="xMidYMid meet">
<metadata>
Created by potrace 1.11, written by Peter Selinger 2001-2013
</metadata>
<g transform="translate(0.000000,640.000000) scale(0.100000,-0.100000)"
fill="#000000" stroke="none">
<path d="M23 6393 c-20 -4 -23 -11 -23 -49 0 -35 3 -44 18 -44 9 0 29 -11 44
-25 23 -21 27 -33 25 -69 -2 -39 1 -46 25 -61 25 -14 33 -31 29 -57 0 -5 5 -8
12 -8 6 0 4 -5 -7 -11 -13 -8 -24 -8 -41 1 -20 11 -27 10 -51 -9 -15 -11 -33
-21 -40 -21 -10 0 -14 -14 -14 -45 0 -25 4 -45 9 -45 5 0 13 -13 19 -28 8 -24
7 -31 -9 -40 -27 -17 -28 -112 -1 -112 11 0 24 -11 30 -25 13 -29 43 -33 66
-9 18 18 9 44 -25 68 -17 12 -19 17 -9 36 8 16 15 19 24 11 7 -6 24 -11 37
-11 13 1 47 0 74 0 l51 -1 20 49 c17 39 27 50 50 55 62 11 72 -36 19 -90 -20
-20 -35 -46 -35 -60 0 -27 -8 -29 -36 -8 -28 21 -32 19 -42 -17 -8 -31 -11
-33 -51 -33 -40 0 -44 -3 -62 -39 -10 -22 -19 -45 -19 -52 0 -18 -19 -27 -65
-34 -40 -5 -40 -5 -43 -54 -2 -27 2 -54 7 -59 14 -14 14 -77 1 -77 -5 0 -10
-20 -10 -45 0 -43 1 -44 38 -51 34 -6 51 -18 52 -36 0 -5 -5 -8 -11 -8 -6 0
-26 -7 -45 -16 l-34 -16 0 -229 c0 -193 2 -229 15 -229 7 0 18 -8 23 -17 6 -9
19 -17 31 -18 16 -1 21 4 21 22 0 25 31 43 60 36 21 -6 19 -60 -3 -94 -10 -15
-15 -33 -12 -41 4 -9 -1 -18 -10 -22 -9 -3 -14 -10 -10 -16 3 -5 -9 -17 -27
-26 -18 -9 -37 -23 -41 -30 -4 -8 -17 -14 -27 -14 -20 0 -20 -12 -20 -665 l0
-665 24 6 c37 9 43 -15 7 -29 l-31 -11 0 -1603 0 -1603 845 0 c682 0 845 2
843 13 -2 7 0 14 5 15 18 5 27 1 27 -13 0 -13 138 -15 1185 -15 955 0 1185 2
1185 13 0 7 -7 23 -16 36 -15 20 -15 25 -1 38 23 23 57 1 57 -37 0 -17 -4 -30
-10 -30 -5 0 -10 -4 -10 -10 0 -7 192 -10 556 -10 l556 0 -16 24 c-18 29 -11
59 13 54 11 -3 16 -14 15 -41 l-1 -37 583 0 584 0 0 930 0 930 -22 0 c-19 0
-20 -2 -8 -10 11 -7 3 -10 -30 -10 -34 0 -48 -5 -58 -20 -20 -33 -40 -24 -47
21 -4 22 -13 43 -21 46 -17 6 -19 33 -3 33 7 0 9 10 5 28 -4 18 -4 22 3 13 5
-7 13 -11 19 -7 6 3 24 -9 42 -27 23 -25 38 -33 55 -30 12 3 26 0 29 -6 17
-26 31 -9 33 39 1 28 -2 50 -6 50 -11 0 -8 76 2 86 4 4 7 87 7 184 0 139 -3
180 -14 189 -7 6 -17 26 -20 44 -7 31 -8 31 -21 13 -8 -11 -15 -28 -15 -38 0
-21 -1 -22 -35 -6 -18 8 -25 18 -22 30 3 9 -1 22 -9 29 -8 6 -14 8 -14 3 0 -4
-5 -3 -11 3 -7 7 -8 22 -1 45 5 19 6 41 2 49 -11 19 0 70 12 62 6 -3 8 0 6 8
-3 9 -16 13 -34 11 -45 -4 -54 -10 -54 -34 0 -16 3 -19 11 -11 6 6 19 9 28 6
16 -4 17 -10 9 -46 -5 -23 -11 -62 -14 -86 -5 -56 -17 -70 -42 -48 -10 9 -21
17 -25 17 -4 0 -14 -26 -22 -57 -9 -32 -34 -114 -56 -182 l-40 -123 23 -16
c13 -9 30 -15 40 -14 26 5 31 -16 14 -53 -19 -38 -51 -65 -79 -65 -15 0 -18 5
-15 24 3 15 0 27 -8 30 -15 6 -85 -133 -87 -172 -3 -35 23 -48 63 -32 31 13
31 14 25 59 -6 46 -6 47 30 64 48 23 52 22 52 -13 0 -21 -4 -27 -11 -20 -5 5
-17 10 -25 10 -8 0 -12 -3 -8 -6 3 -4 -1 -20 -9 -37 -12 -23 -13 -35 -5 -53
13 -29 27 -30 41 -3 9 17 14 18 26 8 13 -11 13 -14 -3 -22 -10 -5 -32 -25 -49
-44 -22 -23 -36 -31 -48 -27 -15 6 -17 2 -11 -30 7 -34 6 -36 -20 -36 -14 0
-33 7 -41 15 -14 13 -14 15 0 15 9 0 16 7 16 15 0 8 -7 15 -16 15 -10 0 -14 6
-10 15 8 21 -3 45 -21 45 -7 0 -19 -13 -26 -28 -35 -80 -209 -332 -345 -497
-145 -176 -353 -374 -512 -488 -102 -73 -156 -118 -153 -129 2 -4 -3 -5 -11
-2 -8 3 -17 1 -21 -5 -3 -6 -14 -11 -24 -11 -10 0 -34 -13 -54 -29 -20 -15
-50 -34 -67 -41 -16 -7 -30 -16 -30 -21 0 -5 -6 -9 -14 -9 -8 0 -21 -6 -28
-13 -7 -8 -27 -17 -43 -21 -17 -4 -75 -29 -130 -56 -56 -26 -134 -58 -175 -70
-41 -13 -80 -26 -86 -31 -10 -8 -84 -30 -179 -53 -48 -12 -50 -14 -55 -52 -6
-47 -33 -55 -38 -11 -3 28 -4 29 -55 22 -29 -3 -83 -13 -122 -20 -38 -8 -107
-19 -152 -26 -45 -7 -80 -16 -77 -21 3 -5 -12 -6 -33 -3 -21 4 -126 7 -233 7
-107 0 -244 6 -304 13 -59 8 -114 11 -120 9 -7 -3 -13 -14 -13 -26 -3 -36 -20
-41 -19 -6 1 40 16 36 -375 115 -27 5 -49 -20 -27 -33 7 -4 6 -9 -3 -15 -7 -4
-19 -3 -25 2 -9 7 -16 4 -25 -13 -16 -32 -16 -32 -31 -17 -23 24 -19 43 13 62
17 9 29 23 27 30 -4 10 -111 53 -210 84 -31 9 -19 -12 12 -24 47 -18 38 -65
-15 -75 -13 -2 -20 -12 -21 -28 0 -14 -3 -37 -7 -52 -5 -17 -2 -36 5 -47 16
-27 3 -38 -20 -18 -10 10 -24 17 -30 17 -20 0 -42 31 -42 61 0 18 -5 29 -14
29 -7 0 -20 7 -27 16 -12 15 -11 19 9 32 14 9 22 25 22 43 0 18 8 34 20 41 41
26 23 43 -117 108 -76 35 -149 71 -163 80 -111 75 -161 101 -179 95 -16 -5
-19 -3 -15 9 3 9 -3 19 -18 26 -28 15 -120 85 -213 163 -230 194 -534 536
-635 715 -16 29 -117 200 -160 272 -15 25 -34 68 -43 95 -22 65 -43 96 -62 89
-8 -4 -15 -2 -15 4 0 6 4 12 9 14 6 2 -8 57 -30 123 -35 106 -71 244 -123 470
-9 39 -16 88 -16 110 0 22 -9 54 -19 71 -15 24 -17 35 -8 44 9 10 9 11 -1 6
-12 -7 -18 25 -6 37 12 11 4 291 -9 299 -8 5 -8 13 2 31 18 33 11 100 -11 103
-11 1 -15 -3 -11 -12 3 -8 1 -14 -5 -14 -19 0 -18 24 1 43 19 19 19 38 -1 45
-6 2 -14 -9 -18 -25 -4 -15 -14 -36 -23 -47 -23 -26 -69 -48 -76 -36 -3 6 1
13 9 16 9 3 16 14 16 24 0 11 5 22 10 25 6 3 10 21 10 39 0 17 5 37 12 44 17
17 73 15 89 -4 12 -14 15 -4 26 77 18 141 17 168 -6 162 -21 -5 -37 25 -21 41
7 7 16 7 29 -1 22 -14 31 -8 31 23 0 17 -4 21 -20 17 -17 -5 -18 -2 -10 27 12
41 19 48 30 30 6 -9 10 -10 10 -3 0 6 3 19 7 29 5 13 2 16 -8 12 -21 -8 -59 9
-59 28 0 9 24 39 54 68 55 53 83 108 88 170 1 19 5 33 9 31 3 -3 24 44 45 103
21 59 51 129 67 157 16 27 33 60 38 72 5 13 35 70 69 129 33 59 60 108 60 110
0 17 201 295 289 400 146 175 384 400 514 487 163 109 362 226 495 290 l122
59 0 40 c0 35 2 39 23 36 17 -2 21 -8 19 -30 -3 -25 -2 -26 26 -19 16 5 69 24
118 44 49 19 160 52 247 72 87 21 161 43 165 49 3 6 9 31 12 56 l5 45 75 -3
c60 -3 73 -1 63 9 -7 7 -13 16 -13 20 0 9 41 24 54 20 15 -4 26 23 13 31 -19
12 -55 9 -64 -5 -14 -23 -49 -26 -67 -6 -20 24 -43 24 -50 1 -4 -11 -18 -25
-31 -32 -36 -19 -95 8 -95 45 0 15 -6 25 -14 25 -7 0 -19 7 -26 15 -11 13 -67
15 -397 15 -357 0 -384 -1 -389 -17 -24 -78 -64 -91 -77 -25 l-8 42 -92 0
c-81 0 -94 -2 -105 -20 -10 -16 -23 -20 -63 -20 -46 0 -51 2 -46 20 5 19 0 20
-164 20 -106 0 -169 -4 -169 -10 0 -5 6 -10 13 -10 7 0 19 -15 25 -34 17 -46
0 -74 -48 -82 -47 -9 -73 -23 -42 -24 15 0 22 -6 22 -20 0 -13 7 -20 20 -20
11 0 20 6 20 14 0 24 18 28 30 6 9 -18 6 -23 -24 -41 -22 -13 -33 -26 -29 -35
3 -8 1 -14 -5 -14 -6 0 -13 6 -15 13 -3 7 -6 5 -6 -5 -1 -12 -9 -18 -24 -18
-25 0 -57 44 -57 79 0 14 -6 21 -19 21 -34 0 -51 12 -51 35 0 13 -5 27 -11 31
-8 4 -10 26 -6 60 l6 54 -372 -1 c-205 -1 -382 -4 -394 -6z m1924 -35 c-3 -12
-1 -30 4 -40 8 -14 5 -26 -11 -48 -34 -47 -46 -39 -46 33 1 64 7 77 40 77 14
0 17 -5 13 -22z m-1307 -68 c0 -5 -4 -10 -10 -10 -5 0 -10 5 -10 10 0 6 5 10
10 10 6 0 10 -4 10 -10z m824 -35 c3 -9 0 -15 -8 -15 -8 0 -16 7 -20 15 -3 9
0 15 8 15 8 0 16 -7 20 -15z m20 -31 c11 -4 16 -19 16 -48 0 -50 -18 -87 -49
-102 -13 -7 -33 -26 -43 -43 -11 -17 -24 -31 -28 -31 -10 0 -1 38 11 46 5 3 9
15 9 27 0 12 7 31 15 41 8 11 15 28 15 39 0 15 29 77 36 77 1 0 9 -3 18 -6z
m-396 -46 c17 -17 15 -55 -2 -61 -8 -3 -18 -21 -21 -40 -9 -45 -45 -90 -66
-82 -9 3 -19 21 -22 38 -4 18 -9 42 -13 54 -5 17 -2 22 12 22 11 0 33 3 51 7
29 6 31 8 26 40 -6 36 11 46 35 22z m-815 -193 c7 -16 -8 -29 -23 -20 -15 9
-12 35 4 35 8 0 16 -7 19 -15z m1169 -26 c-3 -27 -31 -61 -43 -53 -10 6 -1 53
14 72 15 19 32 8 29 -19z m-332 -91 c0 -5 -7 -8 -15 -8 -15 0 -20 21 -8 33 7
7 23 -11 23 -25z m310 -15 c0 -18 -28 -53 -42 -53 -11 0 -10 27 2 51 13 23 40
25 40 2z m-962 -20 c6 -16 10 -37 9 -48 -1 -11 3 -22 8 -24 22 -8 35 -41 29
-68 -10 -41 -20 -50 -52 -45 -18 2 -33 -2 -41 -12 -11 -13 -9 -17 14 -26 14
-5 33 -10 41 -10 8 0 14 -9 14 -20 0 -24 -23 -26 -62 -6 -15 8 -40 17 -57 21
-39 8 -44 17 -36 65 5 30 11 40 25 40 19 0 40 49 40 92 0 30 23 68 40 68 10 0
22 -12 28 -27z m1078 -79 c-5 -13 -10 -14 -18 -6 -6 6 -8 18 -4 28 5 13 10 14
18 6 6 -6 8 -18 4 -28z m-663 9 c16 -9 5 -33 -18 -39 -29 -7 -30 -12 -10 -38
18 -24 3 -38 -31 -30 -17 4 -26 -3 -48 -40 -34 -59 -86 -75 -86 -27 0 9 -5 22
-12 29 -9 9 -7 16 10 32 12 12 22 27 22 35 0 7 8 16 18 19 11 4 32 22 48 41
26 31 33 34 64 29 19 -4 38 -9 43 -11z m-273 -141 c0 -5 8 -17 18 -28 30 -33
45 -71 38 -98 -7 -30 -22 -33 -54 -10 -13 9 -26 14 -29 10 -11 -11 9 -78 28
-94 23 -20 25 -32 4 -32 -12 0 -14 -10 -11 -46 6 -56 8 -58 42 -50 25 7 25 8
9 26 -24 26 -15 52 20 61 28 8 50 -5 39 -23 -3 -4 1 -16 8 -28 10 -15 10 -24
1 -39 -9 -14 -9 -21 0 -30 8 -8 5 -11 -12 -11 -12 0 -36 -13 -52 -29 -28 -28
-30 -29 -59 -15 -32 16 -40 50 -18 72 16 16 -37 72 -69 72 -15 0 -28 10 -38
30 -20 38 -13 50 31 50 58 0 40 45 -21 52 -25 2 -31 8 -33 32 -3 28 -3 28 32
22 23 -4 36 -3 36 4 0 5 12 10 26 10 l25 0 -20 29 c-27 37 -26 45 2 59 27 13
57 15 57 4z m-371 -48 c19 -24 19 -44 1 -69 -4 -5 -11 -21 -15 -35 -11 -38
-35 -60 -65 -60 -34 0 -54 23 -47 52 4 13 0 29 -9 39 -28 31 -14 62 36 81 61
23 75 22 99 -8z m601 10 c0 -8 -4 -12 -10 -9 -5 3 -10 10 -10 16 0 5 5 9 10 9
6 0 10 -7 10 -16z m-450 -50 c0 -9 -7 -14 -17 -12 -25 5 -28 28 -4 28 12 0 21
-6 21 -16z m7 -130 c26 -52 23 -64 -13 -64 -34 0 -67 35 -58 63 18 60 42 61
71 1z m531 16 c28 -38 28 -40 -7 -40 -36 0 -41 7 -34 43 7 34 14 34 41 -3z
m-64 -31 c-3 -5 -10 -7 -15 -3 -5 3 -7 10 -3 15 3 5 10 7 15 3 5 -3 7 -10 3
-15z m-582 -105 c22 -47 103 -52 114 -8 4 15 16 27 31 30 29 8 33 4 49 -41 8
-25 8 -36 0 -39 -6 -3 1 -3 16 0 20 4 29 1 38 -15 6 -12 18 -21 28 -22 13 0
12 -2 -5 -9 -12 -5 -25 -15 -30 -23 -4 -8 -18 -19 -30 -26 -26 -13 -31 -49 -8
-57 17 -7 20 -30 6 -39 -5 -3 -16 2 -24 10 -9 8 -25 15 -36 15 -11 0 -22 9
-26 21 -4 12 -23 38 -43 57 -32 33 -36 34 -48 18 -7 -11 -10 -31 -7 -52 4 -27
2 -34 -10 -34 -22 0 -36 30 -30 63 3 16 1 27 -6 27 -6 0 -11 15 -11 34 0 19
-6 37 -12 40 -76 38 -99 72 -51 78 52 6 84 -4 95 -28z m584 -49 c3 -47 -9 -71
-28 -59 -9 6 -11 75 -2 99 12 30 28 9 30 -40z m64 31 c0 -21 -11 -46 -20 -46
-14 0 -20 44 -7 52 18 12 27 10 27 -6z m-862 -103 c2 -8 -5 -13 -17 -13 -12 0
-21 6 -21 16 0 18 31 15 38 -3z m567 -72 c-3 -10 1 -24 10 -31 25 -21 17 -28
-27 -23 -50 6 -71 22 -62 47 5 12 14 16 31 13 15 -3 27 1 30 9 8 20 25 6 18
-15z m-318 -256 c3 -48 -25 -88 -58 -83 -32 4 -47 33 -31 58 6 11 12 26 12 33
0 22 23 38 50 35 22 -3 25 -9 27 -43z m-153 -871 c9 -3 16 -10 16 -16 0 -14
-43 -5 -48 10 -4 13 7 15 32 6z m-96 -161 c2 -8 -5 -13 -17 -13 -12 0 -21 6
-21 16 0 18 31 15 38 -3z m47 -33 c3 -5 1 -10 -4 -10 -6 0 -11 5 -11 10 0 6 2
10 4 10 3 0 8 -4 11 -10z m-11 -201 c-3 -5 -10 -7 -15 -3 -5 3 -7 10 -3 15 3
5 10 7 15 3 5 -3 7 -10 3 -15z m74 -66 c-2 -12 -11 -17 -23 -15 -25 5 -29 8
-20 21 11 19 47 13 43 -6z m-41 -399 c6 -16 -15 -64 -28 -64 -12 0 -22 47 -15
65 7 20 35 19 43 -1z m16 -561 c11 -20 15 -60 7 -72 -7 -12 -11 -12 -25 2 -9
10 -32 17 -51 17 -52 0 -38 32 23 50 37 11 41 11 46 3z m93 -90 c-3 -8 -6 -17
-6 -19 0 -2 -4 -4 -10 -4 -5 0 -10 11 -10 25 0 18 4 23 16 18 8 -3 13 -12 10
-20z m-6 -146 c0 -20 -38 -57 -59 -57 -10 0 -26 9 -36 20 -18 19 -17 20 2 20
11 0 26 7 33 15 15 18 60 20 60 2z m60 -77 c0 -5 -7 -10 -15 -10 -8 0 -15 5
-15 10 0 6 7 10 15 10 8 0 15 -4 15 -10z m-160 -58 c0 -9 -29 -25 -62 -36 -13
-4 -18 0 -18 14 0 11 9 20 23 23 39 8 57 7 57 -1z m240 -51 c0 -5 3 -16 6 -25
4 -11 0 -14 -15 -13 -14 1 -20 6 -16 15 3 7 5 18 5 23 0 5 5 9 10 9 6 0 10 -4
10 -9z m-70 -26 c0 -8 -4 -15 -10 -15 -5 0 -7 7 -4 15 4 8 8 15 10 15 2 0 4
-7 4 -15z m-85 -45 c3 -5 -8 -16 -25 -25 -16 -8 -30 -19 -30 -24 0 -4 -11 -6
-25 -3 -14 2 -25 8 -25 13 0 11 42 39 51 33 4 -2 10 0 14 6 8 13 32 13 40 0z
m45 -15 c0 -8 -4 -15 -10 -15 -5 0 -10 7 -10 15 0 8 5 15 10 15 6 0 10 -7 10
-15z m5874 -136 c-9 -15 -31 -10 -38 7 -10 26 4 37 25 18 10 -9 16 -21 13 -25z
m-5652 -51 c-7 -7 -12 -8 -12 -2 0 14 12 26 19 19 2 -3 -1 -11 -7 -17z m-387
-18 c3 -5 1 -10 -4 -10 -6 0 -11 5 -11 10 0 6 2 10 4 10 3 0 8 -4 11 -10z
m6135 -40 c0 -11 5 -29 12 -39 6 -10 8 -27 4 -37 -7 -18 -9 -17 -28 6 -13 16
-28 24 -42 22 -13 -2 -28 4 -35 12 -8 9 -17 13 -22 10 -5 -3 -9 2 -9 11 0 13
4 14 20 5 16 -9 26 -7 47 9 33 27 53 27 53 1z m-162 -238 c2 -42 0 -52 -13
-52 -9 0 -18 7 -21 15 -4 9 -19 15 -38 15 -18 0 -36 3 -39 7 -10 9 13 33 33
33 9 0 25 9 35 20 27 30 40 19 43 -38z m-180 23 c8 -8 -7 -35 -20 -35 -7 0
-22 12 -32 27 l-19 26 33 -7 c18 -3 36 -8 38 -11z m-48 -45 c0 -5 -4 -10 -9
-10 -6 0 -13 5 -16 10 -3 6 1 10 9 10 9 0 16 -4 16 -10z m440 -91 c0 -5 -4 -9
-10 -9 -5 0 -10 7 -10 16 0 8 5 12 10 9 6 -3 10 -10 10 -16z m-32 -207 c-19
-31 -46 -35 -62 -9 -9 15 -6 23 18 43 26 23 30 24 45 10 14 -15 14 -19 -1 -44z
m-5528 -67 c0 -18 31 -20 48 -3 9 9 12 8 12 -4 0 -10 -12 -19 -31 -23 -22 -5
-35 -16 -42 -36 -16 -41 -30 -36 -23 9 3 20 5 45 6 55 0 21 30 23 30 2z m4890
-88 c0 -21 -22 -37 -52 -37 -55 0 -22 47 35 49 9 1 17 -5 17 -12z m334 -39
c15 -24 -5 -42 -38 -34 -28 7 -33 25 -14 44 16 16 38 12 52 -10z m-421 -35
c-4 -16 -7 -45 -7 -65 0 -25 -5 -38 -13 -38 -10 0 -12 -10 -7 -40 4 -26 2 -45
-6 -55 -19 -22 -28 -18 -22 10 4 22 1 25 -22 25 -21 0 -26 5 -26 25 0 24 -3
25 -42 23 -38 -3 -43 0 -46 20 -3 19 1 22 30 22 78 -1 77 -1 80 33 2 25 10 36
38 49 47 24 52 23 43 -9z m82 17 c3 -5 -1 -10 -9 -10 -8 0 -18 5 -21 10 -3 6
1 10 9 10 8 0 18 -4 21 -10z m35 -41 c0 -5 -4 -9 -10 -9 -5 0 -10 7 -10 16 0
8 5 12 10 9 6 -3 10 -10 10 -16z m-354 -112 c-2 -7 -5 -4 -5 6 -1 10 -5 15
-11 12 -5 -3 -18 -1 -27 5 -16 9 -15 10 5 5 15 -4 22 -2 22 7 0 8 5 6 11 -5 6
-10 8 -23 5 -30z m84 -59 c0 -19 -16 -5 -17 14 -2 18 0 20 7 8 5 -8 10 -18 10
-22z m58 3 c3 -8 -1 -12 -9 -9 -7 2 -15 10 -17 17 -3 8 1 12 9 9 7 -2 15 -10
17 -17z m-4013 -181 c-3 -5 -10 -10 -16 -10 -5 0 -9 5 -9 10 0 6 7 10 16 10 8
0 12 -4 9 -10z m3545 -16 c0 -15 -4 -23 -10 -19 -6 4 -17 1 -25 -5 -12 -10
-16 -9 -21 5 -8 19 2 31 31 38 11 3 21 5 23 6 1 0 2 -11 2 -25z m-290 -110 c0
-19 4 -25 15 -20 9 3 15 0 15 -9 0 -8 7 -15 15 -15 20 0 38 -36 30 -61 -4 -11
-16 -29 -28 -41 -15 -14 -18 -22 -9 -25 32 -12 5 -70 -40 -86 -10 -4 -18 -11
-18 -17 0 -13 26 -13 50 0 29 16 45 -16 41 -86 -1 -17 -9 -23 -38 -27 -21 -3
-50 -8 -64 -12 -29 -8 -62 16 -53 39 3 7 -2 19 -11 26 -19 16 -19 40 1 68 14
20 14 25 -2 51 -26 44 -14 62 31 50 32 -9 40 -8 54 8 21 22 32 70 21 92 -4 9
-14 30 -21 46 -7 17 -15 33 -17 38 -2 4 3 7 12 7 11 0 16 -9 16 -26z m-3070 6
c0 -5 -8 -10 -17 -10 -15 0 -16 2 -3 10 19 12 20 12 20 0z m2965 -20 c-27 -12
-43 -12 -25 0 8 5 22 9 30 9 10 0 8 -3 -5 -9z m1625 -9 c0 -15 -19 -23 -38
-16 -14 5 -14 7 -2 15 19 12 40 13 40 1z m-326 -48 c-10 -40 -14 -41 -14 -5 0
18 5 32 10 32 6 0 8 -11 4 -27z m-1224 -8 c0 -8 8 -18 18 -24 16 -9 16 -10 0
-16 -38 -15 -72 21 -48 50 14 17 30 11 30 -10z m445 15 c-3 -5 -11 -10 -16
-10 -6 0 -7 5 -4 10 3 6 11 10 16 10 6 0 7 -4 4 -10z m-4157 -51 c2 -13 8 -29
13 -35 13 -16 0 -44 -20 -44 -23 0 -48 89 -29 101 20 13 33 5 36 -22z m4820 3
c4 -25 -19 -30 -37 -9 -8 10 -7 17 1 25 17 17 32 10 36 -16z m-1228 8 c0 -5
-2 -10 -4 -10 -3 0 -8 5 -11 10 -3 6 -1 10 4 10 6 0 11 -4 11 -10z m853 -35
c12 -8 42 -13 66 -12 46 1 71 -18 71 -56 0 -14 -5 -17 -22 -12 -13 4 -30 15
-38 25 -9 11 -31 20 -54 22 -27 2 -43 10 -54 26 -17 26 -3 30 31 7z m-415 -28
c2 -15 -1 -27 -6 -27 -17 0 -34 29 -28 46 9 23 31 11 34 -19z m362 -72 c0 -32
-38 -45 -57 -19 -17 23 -16 29 3 48 21 22 54 4 54 -29z m-3432 23 c17 -17 15
-79 -5 -124 -9 -22 -17 -57 -17 -79 -1 -34 -4 -40 -24 -43 -26 -4 -52 13 -52
35 0 8 -9 26 -19 40 -23 28 -18 49 12 59 33 10 65 50 73 89 7 37 13 42 32 23z
m282 8 c0 -3 -4 -8 -10 -11 -5 -3 -10 -1 -10 4 0 6 5 11 10 11 6 0 10 -2 10
-4z m-1120 -80 c0 -14 5 -28 10 -31 6 -3 10 -15 10 -25 0 -10 8 -20 18 -23 16
-4 16 -4 -1 -12 -11 -4 -35 -2 -57 5 -21 7 -50 10 -64 8 -14 -3 -26 -1 -26 3
0 5 5 9 12 9 6 0 8 3 4 7 -8 8 64 82 82 83 6 0 12 -11 12 -24z m3342 -2 c111
-42 127 -56 93 -84 -13 -11 -23 -10 -56 0 -39 13 -41 13 -65 -15 -13 -15 -24
-35 -24 -44 0 -28 -30 -61 -54 -61 -30 0 -37 18 -25 66 6 22 14 52 18 69 4 17
17 35 31 42 14 7 26 17 26 23 3 25 1 25 56 4z m-92 -4 c0 -5 -5 -10 -11 -10
-5 0 -7 5 -4 10 3 6 8 10 11 10 2 0 4 -4 4 -10z m-1100 -44 c0 -7 -8 -16 -17
-20 -10 -3 -24 -9 -31 -12 -8 -4 -10 0 -6 10 3 9 16 16 28 17 19 1 19 2 -4 9
l-25 8 28 1 c17 1 27 -4 27 -13z m157 8 c-3 -3 -12 -4 -19 -1 -8 3 -5 6 6 6
11 1 17 -2 13 -5z m633 -52 c0 -5 -9 -17 -20 -27 -20 -18 -25 -11 -14 19 6 17
34 23 34 8z m1648 -18 c27 -8 29 -30 2 -44 -17 -9 -22 -7 -30 15 -15 39 -14
40 28 29z m-1118 -18 c0 -2 -9 -6 -20 -9 -11 -3 -20 -1 -20 4 0 5 9 9 20 9 11
0 20 -2 20 -4z m-3554 -32 c10 -40 -9 -51 -51 -28 -39 21 -43 29 -17 43 32 19
61 13 68 -15z m2677 -25 c-17 -17 -37 -1 -22 17 8 10 15 12 23 4 7 -7 7 -13
-1 -21z"/>
<path d="M2870 6391 c0 -6 5 -13 10 -16 6 -3 10 1 10 9 0 9 -4 16 -10 16 -5 0
-10 -4 -10 -9z"/>
<path d="M2990 6385 c0 -8 5 -15 10 -15 6 0 10 7 10 15 0 8 -4 15 -10 15 -5 0
-10 -7 -10 -15z"/>
<path d="M3140 6390 c0 -5 9 -10 19 -10 11 0 27 -10 35 -22 13 -18 16 -19 16
-5 0 32 38 18 59 -20 20 -39 51 -24 51 24 0 12 -3 13 -15 3 -15 -12 -35 -6
-35 11 0 5 8 9 18 9 9 0 24 5 32 10 10 7 -16 10 -82 10 -59 0 -98 -4 -98 -10z"/>
<path d="M3663 6380 c3 -11 1 -23 -4 -26 -5 -3 -9 4 -9 15 0 44 -35 18 -44
-33 l-8 -39 -19 29 c-10 16 -19 24 -19 18 0 -7 -11 -22 -25 -35 -13 -13 -25
-33 -25 -45 0 -19 -28 -54 -43 -54 -4 0 -13 13 -19 29 -11 24 -16 28 -35 20
-26 -10 -28 -18 -10 -41 8 -12 35 -18 92 -22 44 -3 99 -7 122 -9 39 -4 41 -3
32 15 -14 26 -3 41 22 28 29 -16 23 0 -17 41 -35 36 -36 37 -15 48 16 9 28 8
58 -8 49 -24 82 -60 66 -69 -8 -5 -9 -13 -3 -22 12 -19 13 -53 1 -45 -5 3 -12
1 -15 -3 -8 -13 59 -31 75 -21 8 5 20 3 29 -5 8 -7 53 -23 99 -36 46 -12 111
-30 144 -41 77 -24 81 -24 61 6 -15 23 -15 27 1 51 12 19 13 29 5 38 -7 10 -7
22 0 40 15 39 12 56 -8 56 -13 0 -21 -15 -32 -62 -12 -52 -19 -64 -37 -66 -13
-2 -23 1 -23 6 0 8 -14 13 -78 27 -7 2 -24 10 -37 19 -13 9 -30 16 -37 16 -14
0 -36 22 -64 65 -13 21 -15 31 -6 50 7 14 18 25 27 25 8 0 24 5 34 12 30 18
63 -25 55 -70 -3 -23 -2 -32 5 -27 6 3 11 13 11 21 0 12 4 12 20 4 14 -8 20
-21 20 -45 0 -24 5 -35 15 -35 8 0 15 6 15 13 0 8 7 27 15 44 8 16 15 41 14
54 0 13 0 39 0 57 l0 32 -100 0 c-95 0 -100 -1 -108 -23 -9 -23 -51 -57 -70
-57 -14 0 -56 41 -64 63 -4 11 -17 17 -38 17 -26 0 -31 -3 -26 -20z m-83 -129
c0 -12 -39 -21 -45 -11 -3 5 1 11 7 13 21 9 38 8 38 -2z"/>
<path d="M4287 6393 c-4 -3 -19 -8 -34 -9 -16 -2 -35 -12 -44 -23 -15 -18 -18
-19 -29 -6 -16 19 -30 19 -30 1 0 -7 11 -21 25 -30 16 -10 25 -26 25 -42 0
-26 31 -47 38 -26 2 7 12 12 22 12 25 0 30 11 39 76 7 50 4 63 -12 47z"/>
<path d="M4603 6373 c-9 -27 3 -73 20 -73 18 0 66 31 85 55 11 14 25 25 30 25
6 0 14 5 17 10 4 6 -21 10 -69 10 -72 0 -75 -1 -83 -27z"/>
<path d="M4883 6388 c-28 -35 -36 -148 -12 -148 5 0 9 -17 10 -37 0 -21 3 -32
6 -25 7 17 30 15 37 -4 8 -21 -19 -70 -42 -76 -10 -3 -29 -26 -41 -52 -13 -25
-32 -51 -42 -57 -13 -7 -18 -17 -14 -28 3 -11 -1 -24 -11 -32 -24 -20 -81 15
-108 66 -24 45 -56 93 -56 83 0 -4 16 -33 35 -65 46 -78 54 -117 26 -132 -16
-9 -27 -9 -43 1 -13 6 -29 13 -37 14 -8 2 -26 6 -40 9 -42 11 -10 -16 66 -55
37 -19 70 -38 73 -41 7 -8 106 -69 112 -69 3 0 8 9 11 20 3 12 14 20 25 20 24
0 82 29 98 49 7 9 21 12 38 9 23 -5 29 -1 41 28 15 37 18 39 45 24 11 -6 16
-17 13 -28 -6 -26 23 -50 40 -32 9 10 9 13 0 17 -22 8 -14 37 12 49 32 15 35
10 20 -34 -8 -22 -11 -65 -8 -107 3 -38 6 -92 6 -120 l2 -50 -42 2 c-24 1 -43
-2 -43 -6 0 -11 36 -21 76 -21 49 0 81 -49 52 -78 -10 -10 -4 -21 31 -52 25
-22 46 -40 48 -40 8 0 1 11 -18 29 -31 28 -17 58 33 71 47 13 70 7 67 -17 -3
-39 2 -47 14 -23 7 14 23 26 35 28 23 4 29 16 12 27 -15 9 -12 57 5 79 21 28
19 49 -4 41 -27 -8 -37 29 -17 60 18 27 24 29 45 16 9 -6 12 -19 8 -40 -8 -39
9 -41 71 -9 30 17 42 29 42 45 0 13 4 23 8 23 13 0 28 42 24 67 -7 47 -75 34
-103 -19 -14 -28 -28 -38 -51 -38 -14 0 -18 9 -18 40 l0 40 -40 0 c-30 0 -40
4 -40 16 0 9 9 18 20 21 15 4 18 12 15 42 -2 21 4 52 12 69 15 31 15 33 -8 53
l-24 21 -3 -39 c-2 -27 -11 -44 -30 -60 -26 -22 -26 -23 -7 -38 18 -13 18 -16
4 -27 -8 -7 -18 -21 -22 -30 -4 -13 -17 -16 -57 -15 -54 2 -76 20 -64 51 8 20
43 21 50 2 5 -12 11 -13 30 -4 24 11 34 30 13 26 -6 -2 -14 3 -16 10 -3 6 2
12 11 12 9 0 16 3 17 8 6 54 26 149 34 163 4 5 12 9 19 9 8 0 19 7 26 15 7 8
25 14 40 13 42 -3 80 27 80 62 0 17 -4 30 -9 30 -19 0 -41 32 -41 61 0 34 -16
69 -31 69 -16 0 -69 -43 -69 -57 0 -22 -39 -36 -67 -24 -29 13 -59 7 -67 -14
-3 -8 -2 -15 3 -15 4 0 6 -14 3 -30 -4 -31 -34 -60 -62 -60 -9 0 -26 -11 -38
-25 -12 -14 -27 -25 -33 -25 -7 0 -17 -7 -24 -17 -7 -9 -17 -13 -24 -9 -9 6
-9 11 2 19 8 7 17 24 21 39 4 16 45 67 96 119 90 90 120 126 120 141 0 5 -40
8 -90 8 -61 0 -90 -4 -90 -12 0 -18 -50 -78 -65 -78 -18 0 -37 34 -29 54 11
30 -82 51 -103 24z m83 -175 c-10 -10 -19 5 -10 18 6 11 8 11 12 0 2 -7 1 -15
-2 -18z m241 -138 c33 -23 19 -48 -22 -41 -45 9 -66 -1 -59 -28 6 -26 -35 -76
-64 -76 -26 0 -35 45 -17 86 9 23 25 35 66 52 66 25 69 26 96 7z m53 -109 c0
-3 -4 -8 -10 -11 -5 -3 -10 -1 -10 4 0 6 5 11 10 11 6 0 10 -2 10 -4z m-255
-16 c4 -6 -9 -17 -29 -25 -40 -17 -66 -49 -59 -74 2 -9 -3 -23 -12 -31 -13
-11 -18 -11 -32 3 -14 14 -14 18 5 49 29 47 74 86 79 71 3 -7 9 -13 14 -13 4
0 6 7 3 15 -7 17 21 21 31 5z m225 -213 c14 -8 24 -19 23 -25 -2 -7 2 -12 7
-12 6 0 10 6 10 14 0 8 8 13 18 11 9 -2 23 -4 30 -4 28 -2 0 -98 -38 -129 -14
-11 -19 -23 -15 -35 4 -9 11 -14 16 -11 5 3 9 1 9 -5 0 -5 -4 -13 -10 -16 -5
-3 -10 -1 -10 4 0 6 -9 11 -19 11 -26 0 -35 17 -32 61 1 32 -2 38 -20 41 -26
4 -44 47 -35 83 7 28 28 32 66 12z m137 -103 c7 -20 -11 -38 -32 -31 -13 6
-13 10 -3 27 15 24 27 26 35 4z"/>
<path d="M5440 6390 c0 -5 6 -9 13 -7 8 1 12 -12 12 -43 0 -45 0 -45 35 -46
19 -1 44 -4 56 -8 17 -5 23 0 36 33 14 35 22 42 62 52 26 6 49 15 52 20 9 14
-81 10 -111 -5 -23 -12 -30 -12 -53 0 -31 16 -102 19 -102 4z"/>
<path d="M5825 6390 c3 -5 15 -10 25 -10 10 0 22 5 25 10 4 6 -7 10 -25 10
-18 0 -29 -4 -25 -10z"/>
<path d="M6103 6382 c10 -10 17 -26 17 -36 0 -31 -106 -121 -294 -249 -31 -21
-56 -42 -56 -46 0 -10 110 -22 122 -15 5 3 20 23 33 44 27 43 55 56 85 40 16
-8 20 -8 20 3 0 22 33 55 62 62 30 8 48 -15 48 -60 0 -14 6 -28 13 -31 20 -7
15 -54 -8 -71 -12 -10 -14 -14 -4 -10 12 4 15 -3 15 -34 -1 -71 -84 -113 -106
-54 -8 20 -16 22 -118 27 l-110 6 -40 38 c-36 34 -40 44 -38 79 1 22 8 50 14
62 17 30 15 43 -6 43 -10 0 -22 4 -27 9 -17 15 -115 22 -115 7 0 -6 -11 -27
-25 -46 -34 -46 -32 -67 6 -75 50 -11 70 -37 59 -77 -12 -40 -4 -74 14 -59 9
8 18 5 33 -8 15 -14 24 -16 37 -9 14 8 25 5 47 -11 31 -23 59 -27 76 -10 6 6
21 9 34 7 19 -2 23 -8 21 -27 -2 -13 -13 -36 -24 -51 -19 -26 -19 -28 -2 -63
10 -20 22 -37 27 -37 26 0 96 27 123 47 18 13 48 24 70 26 37 2 39 1 52 -40
15 -48 26 -53 43 -22 10 19 17 21 67 16 32 -3 67 -8 79 -12 16 -5 25 -3 29 9
6 17 -16 76 -29 76 -4 0 -4 12 -1 26 6 24 5 25 -29 19 -30 -6 -36 -4 -42 15
-4 11 -1 27 5 35 9 10 8 21 -4 44 -29 55 -23 68 59 118 11 7 30 17 43 22 21
10 22 15 22 151 l0 140 -75 0 c-41 0 -75 -3 -75 -7 0 -5 -12 -16 -26 -26 -21
-16 -28 -17 -54 -5 -17 7 -30 19 -30 25 0 7 -12 13 -27 13 -25 0 -25 -1 -10
-18z m287 -39 c0 -49 -24 -73 -72 -73 -21 0 -56 -9 -77 -20 -21 -10 -41 -16
-45 -13 -25 25 23 85 63 77 25 -5 57 13 100 57 22 22 31 14 31 -28z"/>
<path d="M3022 6358 c-14 -14 -16 -38 -4 -38 10 0 42 33 42 43 0 11 -25 8 -38
-5z"/>
<path d="M5803 6310 c-19 -8 -23 -17 -23 -51 l0 -41 38 6 c47 9 76 40 62 67
-6 10 -15 19 -20 19 -4 0 -14 2 -22 4 -7 3 -23 1 -35 -4z"/>
<path d="M3080 6300 c-13 -8 -12 -10 3 -10 9 0 17 5 17 10 0 12 -1 12 -20 0z"/>
<path d="M4461 6296 c-6 -7 -12 -26 -13 -42 -1 -16 -6 -34 -10 -41 -6 -7 -3
-15 9 -22 15 -8 21 -4 33 22 12 24 21 31 38 29 27 -4 28 1 0 38 -24 33 -40 37
-57 16z"/>
<path d="M4700 6274 c-27 -12 -32 -17 -20 -24 34 -22 93 2 75 30 -8 13 -13 12
-55 -6z"/>
<path d="M2916 6261 c-8 -9 -14 -27 -13 -39 1 -19 7 -22 47 -22 60 0 92 9 83
24 -4 6 -8 13 -9 16 0 3 -4 13 -8 22 -10 22 -79 22 -100 -1z"/>
<path d="M2780 6215 c0 -22 4 -25 35 -25 29 0 33 3 28 18 -15 40 -63 45 -63 7z"/>
<path d="M4529 6209 c-10 -19 -9 -25 7 -36 10 -7 21 -13 26 -13 14 0 9 47 -6
59 -12 10 -17 8 -27 -10z"/>
<path d="M4730 6215 c0 -8 5 -15 10 -15 6 0 10 7 10 15 0 8 -4 15 -10 15 -5 0
-10 -7 -10 -15z"/>
<path d="M4220 6166 c0 -19 26 -40 35 -26 3 5 11 10 17 10 16 0 0 -52 -24 -77
-12 -13 -18 -26 -15 -30 4 -3 7 -1 7 5 0 15 32 16 47 1 7 -7 16 -3 30 14 10
14 28 26 39 28 13 3 20 14 22 36 4 42 -25 60 -71 44 -21 -8 -34 -8 -41 -1 -15
15 -46 12 -46 -4z"/>
<path d="M4852 6148 c-16 -16 -15 -41 1 -35 6 2 12 8 12 13 0 5 4 15 8 22 10
15 -5 16 -21 0z"/>
<path d="M4580 6136 c0 -9 5 -16 10 -16 6 0 10 4 10 9 0 6 -4 13 -10 16 -5 3
-10 -1 -10 -9z"/>
<path d="M4466 6118 c-9 -12 -16 -26 -16 -30 0 -16 18 -7 34 16 20 31 3 44
-18 14z"/>
<path d="M4436 6018 c-31 -17 -86 -27 -83 -15 1 6 -6 13 -15 15 -11 2 -18 -2
-18 -12 0 -9 6 -16 13 -16 7 0 29 -9 50 -20 54 -29 87 -19 87 26 0 37 -5 39
-34 22z"/>
<path d="M2961 5981 c-6 -11 -11 -31 -11 -45 0 -30 -24 -35 -39 -8 -9 15 -12
15 -21 2 -8 -12 -9 -9 -8 12 2 22 6 27 20 22 12 -3 18 0 18 10 0 23 -26 20
-44 -5 -8 -13 -21 -19 -30 -16 -19 7 -29 -18 -12 -32 7 -6 15 -8 19 -5 3 3 26
-6 52 -21 27 -16 50 -24 55 -19 12 13 29 114 19 120 -4 2 -13 -4 -18 -15z"/>
<path d="M3535 5969 c20 -33 88 -119 94 -119 4 0 29 23 56 50 28 28 43 50 35
50 -9 0 -21 -9 -27 -20 -20 -31 -46 -40 -74 -27 -13 7 -25 18 -25 25 -1 7 -2
16 -3 21 0 5 -9 11 -18 15 -10 3 -24 9 -32 12 -10 5 -11 3 -6 -7z"/>
<path d="M6371 5944 c-10 -23 -10 -26 4 -20 9 3 19 6 21 6 2 0 4 9 4 20 0 28
-15 25 -29 -6z"/>
<path d="M2620 5940 c-8 -5 -11 -10 -5 -10 5 0 4 -5 -3 -12 -9 -9 -15 -8 -26
8 -16 22 -21 19 -29 -17 -5 -21 -2 -28 19 -37 14 -7 30 -12 36 -12 6 0 19 -7
28 -15 22 -20 54 -9 44 14 -9 21 -9 52 0 74 7 14 3 17 -20 17 -16 0 -36 -5
-44 -10z"/>
<path d="M4486 5931 c-3 -5 1 -12 10 -15 22 -8 25 -4 9 11 -8 7 -16 9 -19 4z"/>
<path d="M2505 5910 c3 -5 10 -10 16 -10 5 0 9 5 9 10 0 6 -7 10 -16 10 -8 0
-12 -4 -9 -10z"/>
<path d="M5490 5909 c0 -5 5 -7 10 -4 6 3 10 8 10 11 0 2 -4 4 -10 4 -5 0 -10
-5 -10 -11z"/>
<path d="M5630 5885 c-24 -29 25 -115 66 -115 14 0 39 94 29 110 -3 5 -17 7
-30 4 -12 -3 -26 -1 -29 5 -10 15 -21 14 -36 -4z"/>
<path d="M3960 5852 c0 -21 -5 -43 -12 -50 -8 -8 -5 -14 16 -22 42 -16 55 -12
62 18 10 46 14 53 24 47 5 -3 18 -2 27 4 17 9 17 10 -2 16 -11 4 -30 11 -43
16 -13 5 -34 9 -47 9 -22 0 -25 -4 -25 -38z"/>
<path d="M2250 5824 c0 -8 5 -12 10 -9 6 3 10 10 10 16 0 5 -4 9 -10 9 -5 0
-10 -7 -10 -16z"/>
<path d="M4129 5813 c-8 -16 -22 -34 -31 -41 -25 -19 -22 -32 8 -32 14 0 23 4
20 8 -3 5 6 25 19 44 22 32 23 48 5 48 -4 0 -13 -12 -21 -27z"/>
<path d="M2195 5823 c-11 -3 -48 -18 -82 -34 l-63 -28 0 -62 0 -61 28 7 c15 4
52 19 82 33 l55 27 3 63 c1 34 1 61 0 61 -2 -1 -12 -3 -23 -6z"/>
<path d="M5080 5765 c0 -9 -9 -19 -20 -22 -11 -3 -20 -9 -20 -12 0 -9 48 -36
54 -30 11 11 10 72 -1 76 -7 3 -13 -3 -13 -12z"/>
<path d="M4400 5722 c0 -5 10 -14 23 -20 l22 -11 -22 -6 c-26 -8 -38 -35 -21
-47 7 -5 26 -6 42 -3 29 5 31 0 11 -47 -4 -11 0 -18 15 -23 12 -4 41 -20 65
-36 24 -16 49 -29 56 -29 22 0 57 44 61 75 3 26 -4 32 -112 91 -111 62 -140
73 -140 56z"/>
<path d="M5817 5690 c-3 -11 -4 -20 -3 -20 2 0 13 9 26 20 22 19 22 20 3 20
-12 0 -23 -8 -26 -20z"/>
<path d="M4921 5686 c-11 -13 -10 -17 3 -22 22 -8 30 1 19 21 -9 15 -11 15
-22 1z"/>
<path d="M5700 5667 c0 -21 7 -36 20 -44 23 -15 36 0 15 17 -8 7 -15 23 -15
36 0 13 -4 24 -10 24 -5 0 -10 -15 -10 -33z"/>
<path d="M4300 5675 l-25 -14 35 -14 c29 -13 36 -13 43 -2 9 17 -1 45 -17 45
-6 -1 -22 -7 -36 -15z"/>
<path d="M4995 5680 c-7 -12 2 -30 16 -30 5 0 9 9 9 20 0 21 -15 27 -25 10z"/>
<path d="M5591 5654 c0 -11 3 -14 6 -6 3 7 2 16 -1 19 -3 4 -6 -2 -5 -13z"/>
<path d="M1795 5632 c-321 -178 -681 -507 -888 -810 -57 -83 -72 -117 -41 -91
13 10 17 10 24 -2 5 -7 7 -23 4 -35 -4 -17 0 -23 22 -28 33 -9 45 6 42 49 -3
26 1 30 25 33 34 4 68 59 45 73 -7 5 -16 9 -20 9 -5 0 -8 4 -8 9 0 16 34 18
46 3 13 -17 21 -10 98 87 142 177 444 434 666 565 36 22 80 50 98 63 l33 25
-25 19 c-14 11 -28 28 -31 39 -9 27 -31 25 -90 -8z m-810 -831 c-3 -6 -10 -9
-15 -6 -5 3 -13 -3 -19 -12 -5 -10 -13 -14 -17 -10 -10 10 11 43 25 40 6 -2
11 2 11 9 0 9 3 9 11 1 6 -6 8 -16 4 -22z m-55 -51 c0 -5 -4 -10 -10 -10 -5 0
-10 5 -10 10 0 6 5 10 10 10 6 0 10 -4 10 -10z"/>
<path d="M6337 5611 c-10 -17 -25 -32 -35 -34 -62 -17 -70 -17 -93 7 l-23 24
-16 -21 c-18 -21 -70 -28 -102 -13 -13 6 -20 3 -25 -10 -4 -10 -2 -19 5 -22
17 -5 14 -41 -7 -87 -25 -56 -51 -76 -92 -73 -30 3 -34 0 -31 -19 3 -22 -30
-53 -58 -53 -21 -1 -70 -46 -70 -65 0 -24 49 -18 86 10 18 14 46 25 62 25 16
0 35 7 42 15 23 27 55 14 58 -22 4 -37 17 -43 27 -13 3 11 15 25 26 30 10 6
19 16 19 23 0 17 48 67 64 67 28 0 34 -54 10 -81 -15 -16 -14 -20 2 -47 22
-37 13 -62 -22 -62 -15 0 -47 -12 -72 -26 -44 -26 -47 -26 -131 -16 -68 8 -87
7 -96 -3 -14 -18 -75 -8 -75 12 0 23 -25 9 -28 -15 -4 -24 -31 -29 -50 -10 -7
7 -12 29 -12 49 0 48 -13 56 -35 23 -12 -19 -14 -29 -6 -37 21 -21 12 -36 -21
-35 -18 1 -33 -3 -35 -9 -2 -6 -10 -19 -18 -29 -13 -17 -13 -16 -3 13 13 36 9
47 -16 37 -37 -14 -36 -39 1 -95 46 -70 110 -130 82 -77 -8 14 -8 23 -2 25 6
2 25 17 43 33 46 41 97 42 106 3 11 -45 18 -50 24 -18 6 37 41 55 116 60 44 2
57 0 67 -16 13 -18 15 -18 69 9 94 47 116 54 134 44 11 -6 13 -11 5 -16 -17
-11 -13 -69 7 -118 11 -24 22 -60 26 -81 9 -46 -10 -182 -30 -217 -7 -14 -19
-36 -25 -50 -6 -14 -16 -35 -22 -47 -13 -29 -54 -30 -103 -3 -20 12 -39 19
-41 16 -3 -3 -14 -1 -24 4 -12 7 -20 7 -24 0 -3 -5 -14 -10 -25 -10 -20 0 -34
-38 -24 -65 5 -11 14 -15 30 -11 12 3 26 2 29 -4 11 -18 26 -10 20 10 -4 14
-2 20 8 20 9 0 17 -5 19 -11 3 -8 10 -8 25 2 19 11 25 11 42 -5 21 -19 27 -60
13 -83 -5 -9 -19 -9 -50 -2 -28 6 -49 6 -62 -1 -10 -5 -26 -7 -34 -4 -10 4
-16 1 -16 -8 0 -18 79 -170 93 -179 5 -4 7 -14 4 -23 -4 -9 -2 -26 3 -38 8
-22 9 -22 9 -3 1 26 19 45 43 45 10 0 21 6 24 14 3 8 19 18 35 21 36 8 45 22
19 30 -34 11 -17 85 20 85 11 0 20 4 20 8 0 5 15 16 34 25 19 9 37 25 41 36 4
13 24 27 56 38 41 15 49 22 49 43 0 14 -5 31 -11 37 -8 8 -8 13 0 17 6 4 11
21 11 38 l0 31 -23 -21 c-29 -28 -85 -40 -92 -21 -11 30 -13 148 -4 213 11 80
25 101 77 113 l37 9 3 339 c2 344 1 354 -33 355 -6 0 -19 -13 -28 -29z m-85
-1016 c-12 -22 -27 -2 -18 22 5 12 10 13 17 6 7 -7 8 -17 1 -28z m108 -34 c0
-13 -58 -32 -65 -21 -7 11 23 29 48 30 9 0 17 -4 17 -9z m-124 -60 c-8 -13
-36 -15 -36 -3 0 4 5 13 12 20 14 14 34 0 24 -17z"/>
<path d="M5662 5576 c-15 -21 -33 -86 -27 -96 3 -5 12 -10 20 -10 7 0 16 -12
19 -26 9 -34 31 -17 40 32 8 39 22 48 104 59 28 4 52 11 52 16 0 5 -11 7 -25
3 -20 -5 -25 -2 -25 13 0 18 -8 20 -75 20 -45 1 -78 -4 -83 -11z"/>
<path d="M4690 5550 c0 -5 5 -10 10 -10 6 0 10 5 10 10 0 6 -4 10 -10 10 -5 0
-10 -4 -10 -10z"/>
<path d="M5974 5549 c-11 -18 13 -34 31 -19 8 7 15 16 15 21 0 13 -38 11 -46
-2z"/>
<path d="M5497 5529 c-9 -32 12 -69 40 -69 26 0 28 12 12 59 -13 36 -44 42
-52 10z"/>
<path d="M5448 5533 c7 -3 16 -2 19 1 4 3 -2 6 -13 5 -11 0 -14 -3 -6 -6z"/>
<path d="M5470 5280 c-19 -11 -44 -19 -54 -20 -15 0 -17 -3 -9 -11 8 -8 24 -5
58 12 44 22 66 39 48 39 -4 -1 -24 -9 -43 -20z"/>
<path d="M5046 5245 c-9 -24 -8 -25 15 -25 14 0 19 5 17 17 -4 23 -24 27 -32
8z"/>
<path d="M4960 5234 c0 -8 5 -12 10 -9 6 3 10 10 10 16 0 5 -4 9 -10 9 -5 0
-10 -7 -10 -16z"/>
<path d="M5114 5223 c1 -16 -12 -23 -73 -40 -10 -3 -5 -14 19 -38 39 -40 67
-46 66 -14 -1 12 4 24 11 26 13 5 27 -48 24 -91 -1 -22 10 -41 46 -80 27 -29
68 -78 91 -108 24 -31 52 -64 62 -73 16 -15 17 -14 13 10 -3 14 -12 25 -20 25
-15 0 -15 12 2 67 6 18 2 23 -17 28 -29 8 -51 71 -34 99 13 20 -9 39 -34 30
-8 -3 -29 -8 -46 -11 -26 -4 -33 -1 -39 16 -7 22 9 51 27 51 5 0 18 -10 29
-22 15 -19 18 -20 19 -6 0 24 -54 60 -68 46 -9 -9 -12 -9 -12 0 0 7 5 12 11
12 17 0 8 13 -37 53 -31 27 -41 33 -40 20z m186 -270 c0 -23 -22 -25 -46 -2
-26 25 -31 45 -11 52 14 5 57 -32 57 -50z"/>
<path d="M5390 4922 c0 -5 7 -15 15 -22 8 -7 15 -9 15 -6 0 4 -7 14 -15 22 -8
9 -15 11 -15 6z"/>
<path d="M6135 4856 c-77 -36 -156 -66 -174 -66 -16 -1 -51 -23 -51 -33 0 -7
50 7 76 22 16 9 133 54 197 75 16 5 25 27 10 25 -5 0 -30 -11 -58 -23z"/>
<path d="M5416 4851 c-10 -16 5 -41 24 -41 19 0 34 25 24 41 -3 5 -14 9 -24 9
-10 0 -21 -4 -24 -9z"/>
<path d="M5751 4805 c0 -5 13 -34 30 -64 l31 -54 21 23 22 22 -22 15 c-13 9
-23 24 -23 35 0 16 -5 19 -25 16 -13 -3 -26 0 -29 6 -2 6 -5 7 -5 1z"/>
<path d="M5880 4749 c0 -5 5 -7 10 -4 6 3 10 8 10 11 0 2 -4 4 -10 4 -5 0 -10
-5 -10 -11z"/>
<path d="M5515 4740 c-4 -6 -3 -16 3 -22 6 -6 12 -6 17 2 4 6 3 16 -3 22 -6 6
-12 6 -17 -2z"/>
<path d="M0 4633 c0 -13 5 -23 10 -23 13 0 13 11 0 30 -8 12 -10 11 -10 -7z"/>
<path d="M817 4593 c-12 -12 15 -33 43 -33 23 0 40 15 40 36 0 7 -76 5 -83 -3z"/>
<path d="M5543 4587 c-26 -11 -30 -39 -9 -56 16 -13 56 1 56 19 0 6 7 10 15
10 8 0 15 5 15 10 0 6 1 13 3 16 4 11 -57 12 -80 1z"/>
<path d="M5872 4588 c6 -18 25 -20 31 -3 5 10 0 15 -14 15 -12 0 -19 -5 -17
-12z"/>
<path d="M755 4580 c-9 -15 37 -110 54 -110 10 0 11 4 3 13 -5 6 -12 30 -14
52 -4 48 -27 71 -43 45z"/>
<path d="M694 4465 c-13 -20 -14 -29 -5 -38 6 -6 11 -21 11 -34 0 -16 6 -23
20 -23 25 0 26 -12 1 -27 -16 -10 -22 -8 -37 13 -25 32 -35 30 -28 -6 4 -18 1
-36 -6 -45 -10 -12 -10 -19 -2 -27 16 -16 15 -28 -1 -28 -15 0 -37 -41 -37
-68 1 -15 2 -15 13 -1 9 11 20 14 40 8 24 -6 29 -3 43 23 8 16 14 44 12 61 -1
21 2 31 10 29 7 -1 15 6 18 15 3 10 10 27 16 39 7 16 3 33 -21 78 l-30 58 -17
-27z"/>
<path d="M1631 4343 c16 -76 38 -176 49 -223 11 -47 43 -193 71 -325 28 -132
64 -303 80 -380 17 -77 41 -192 54 -255 14 -63 52 -241 85 -395 85 -391 180
-836 180 -841 0 -2 83 -4 184 -4 204 0 187 -6 201 70 4 19 22 107 41 195 60
274 81 373 129 600 26 121 58 272 72 335 52 240 65 300 103 480 36 173 89 422
158 743 l30 137 -184 0 c-101 0 -184 -1 -184 -3 0 -2 -13 -68 -29 -148 -32
-153 -108 -543 -196 -1004 -30 -154 -66 -356 -80 -450 -55 -363 -59 -381 -67
-344 -3 19 -23 147 -43 284 -20 138 -54 342 -76 455 -52 267 -228 1158 -234
1188 -5 22 -7 22 -189 22 l-183 0 28 -137z"/>
<path d="M3427 4473 c-4 -3 -7 -579 -7 -1280 l0 -1273 185 0 185 0 0 595 0
595 320 0 320 0 0 -595 0 -595 185 0 185 0 0 1280 0 1280 -185 0 -185 0 0
-550 0 -550 -320 0 -320 0 0 550 0 550 -178 0 c-98 0 -182 -3 -185 -7z"/>
<path d="M5667 4433 c-4 -3 -7 -11 -7 -17 0 -6 5 -5 12 2 6 6 9 14 7 17 -3 3
-9 2 -12 -2z"/>
<path d="M5630 4390 c-14 -9 -7 -15 14 -11 5 1 6 -5 2 -14 -7 -20 11 -58 24
-50 8 5 -5 62 -19 77 -3 4 -13 3 -21 -2z"/>
<path d="M5692 4323 c4 -22 24 -28 32 -8 3 9 2 13 -4 10 -6 -3 -10 -1 -10 4 0
6 -5 11 -11 11 -6 0 -9 -8 -7 -17z"/>
<path d="M6327 4304 c-40 -13 -47 -17 -37 -29 7 -8 16 -12 21 -10 4 3 12 -2
17 -11 8 -15 11 -15 31 5 11 11 26 21 31 21 6 0 10 9 10 20 0 23 -8 24 -73 4z"/>
<path d="M5765 4287 c6 -23 4 -27 -14 -27 -12 0 -24 7 -27 15 -7 17 -54 21
-54 5 0 -6 4 -18 10 -28 5 -9 14 -29 20 -44 7 -20 16 -28 32 -28 22 1 22 1 4
15 -22 17 -14 30 17 30 14 0 21 5 19 15 -2 11 1 11 11 -2 24 -30 27 -20 8 22
-22 50 -35 63 -26 27z"/>
<path d="M6225 4290 c-3 -5 -4 -10 -1 -10 2 0 11 -3 20 -6 11 -4 16 -1 16 10
0 18 -25 22 -35 6z"/>
<path d="M5772 4144 c-8 -4 6 -16 35 -30 l48 -23 -57 5 c-32 2 -58 3 -58 2 0
-2 13 -37 29 -78 15 -41 34 -106 41 -143 12 -67 47 -127 73 -127 7 0 5 5 -3
10 -10 6 -11 10 -3 10 7 0 20 -17 28 -37 14 -32 14 -38 1 -45 -11 -6 -12 -15
-3 -43 9 -31 8 -38 -11 -58 -25 -27 -29 -67 -7 -67 17 0 20 -27 4 -32 -8 -3
-9 -20 -5 -54 6 -39 11 -50 26 -51 13 -1 17 3 13 13 -3 8 1 14 11 14 9 0 16
-4 16 -9 0 -5 3 -16 6 -25 4 -10 1 -16 -8 -16 -8 0 -22 -6 -32 -13 -16 -12
-16 -13 1 -13 10 -1 33 -3 51 -7 17 -3 32 -1 32 4 0 5 -7 9 -15 9 -23 0 -18
17 6 23 20 5 21 10 14 63 -8 65 -14 86 -24 80 -4 -3 -13 -1 -20 4 -16 10 -6
30 16 30 13 0 14 9 8 58 -3 31 -10 71 -15 87 -5 17 -17 64 -25 105 -9 41 -20
86 -25 100 -4 14 -15 50 -24 80 -19 64 -36 95 -36 68 0 -27 -19 -21 -26 7 -7
30 3 46 16 25 7 -10 9 -3 7 22 -2 21 -6 40 -8 43 -9 8 -63 14 -77 9z m48 -64
c0 -5 -4 -10 -10 -10 -5 0 -10 5 -10 10 0 6 5 10 10 10 6 0 10 -4 10 -10z m7
-87 c-3 -10 -5 -4 -5 12 0 17 2 24 5 18 2 -7 2 -21 0 -30z m-7 -39 c0 -8 -5
-12 -10 -9 -6 4 -8 11 -5 16 9 14 15 11 15 -7z m55 -84 c-3 -5 -10 -10 -16
-10 -5 0 -9 5 -9 10 0 6 7 10 16 10 8 0 12 -4 9 -10z m65 -411 c0 -11 -27 -12
-34 0 -3 4 -3 11 0 14 8 8 34 -3 34 -14z"/>
<path d="M540 4100 c0 -13 5 -18 15 -14 11 4 13 2 10 -9 -5 -11 0 -13 21 -9
20 4 25 1 22 -9 -7 -20 -40 -24 -50 -5 -10 18 -28 21 -28 5 0 -12 25 -39 36
-39 4 0 16 -8 26 -17 21 -19 33 -11 43 30 5 17 3 27 -4 27 -6 0 -11 7 -11 15
0 8 -16 22 -36 30 -45 19 -44 19 -44 -5z"/>
<path d="M6292 4010 c0 -14 2 -19 5 -12 2 6 2 18 0 25 -3 6 -5 1 -5 -13z"/>
<path d="M540 3988 c0 -8 7 -21 15 -28 19 -16 19 -1 0 24 -12 16 -15 17 -15 4z"/>
<path d="M240 3930 c0 -5 7 -10 15 -10 8 0 15 5 15 10 0 6 -7 10 -15 10 -8 0
-15 -4 -15 -10z"/>
<path d="M6225 3901 c-3 -12 -5 -44 -4 -72 3 -45 0 -53 -25 -72 -28 -23 -28
-24 -21 -101 8 -85 13 -91 75 -89 65 2 96 14 114 44 9 16 21 29 27 29 5 0 9
42 9 95 l0 95 -59 -30 c-32 -17 -66 -30 -75 -30 -26 0 -38 45 -25 92 11 44 -3
79 -16 39z"/>
<path d="M535 3830 c-3 -5 -2 -10 4 -10 5 0 13 5 16 10 3 6 2 10 -4 10 -5 0
-13 -4 -16 -10z"/>
<path d="M548 3793 c-19 -21 -24 -53 -8 -53 13 0 32 38 28 57 -3 13 -6 12 -20
-4z"/>
<path d="M537 3703 c-10 -9 -8 -33 2 -33 5 0 11 9 14 20 5 20 -3 26 -16 13z"/>
<path d="M6200 3456 c0 -17 49 -31 63 -17 7 7 1 14 -17 21 -36 13 -46 13 -46
-4z"/>
<path d="M6391 3424 c0 -11 3 -14 6 -6 3 7 2 16 -1 19 -3 4 -6 -2 -5 -13z"/>
<path d="M480 3290 c-14 -23 -40 -52 -57 -66 -27 -21 -33 -32 -33 -65 0 -28 4
-39 15 -39 19 0 20 -29 0 -36 -34 -13 20 -461 59 -489 8 -6 36 -12 62 -14 l47
-2 -8 43 c-4 24 -11 63 -16 88 -16 84 -39 255 -39 293 0 24 -7 46 -20 59 -10
12 -17 25 -13 31 3 5 9 4 13 -3 5 -9 9 -9 14 -1 4 6 0 14 -8 17 -12 5 -13 11
-6 24 14 25 13 87 -1 92 -8 3 -6 14 5 37 10 18 16 41 14 52 -2 16 -8 12 -28
-21z"/>
<path d="M5984 3298 c1 -7 5 -19 10 -27 12 -19 -35 -3 -51 18 -9 12 -12 13
-13 2 0 -7 -6 -11 -14 -8 -18 7 -24 -30 -25 -150 -1 -76 2 -91 13 -87 9 3 12
13 9 22 -4 13 -2 12 10 -3 9 -11 17 -15 18 -10 1 6 3 15 4 20 2 6 3 17 4 25 1
12 4 11 12 -3 28 -48 14 -122 -18 -96 -22 19 -29 1 -10 -29 9 -15 23 -26 32
-26 10 1 15 -7 15 -22 0 -13 4 -24 9 -24 4 0 11 31 15 69 8 76 7 308 -1 328
-7 17 -22 17 -19 1z"/>
<path d="M6210 3147 c0 -71 3 -84 20 -95 24 -15 26 -49 4 -80 -8 -12 -12 -27
-9 -33 4 -5 -1 -19 -11 -30 -21 -23 -22 -21 41 -42 35 -11 43 -16 25 -17 -14
0 -30 -4 -37 -8 -16 -10 -21 -47 -5 -46 6 1 30 2 52 3 28 1 40 5 40 16 0 9 9
15 25 15 14 0 25 3 26 8 0 4 3 16 6 27 22 81 9 175 -23 175 -10 0 -26 7 -36
17 -14 13 -18 13 -18 2 1 -19 24 -49 39 -49 6 0 11 -7 11 -15 0 -17 -16 -20
-25 -4 -4 5 -19 8 -33 4 -25 -5 -27 -3 -29 26 -2 21 4 37 14 45 14 10 15 15 5
27 -7 8 -14 36 -16 62 -2 43 -5 49 -34 61 l-32 13 0 -82z"/>
<path d="M5906 2833 c-4 -9 -4 -18 -1 -21 3 -3 5 -2 5 3 0 4 9 0 20 -10 19
-18 20 -17 20 3 0 28 -35 48 -44 25z"/>
<path d="M5860 2716 c0 -12 43 -55 51 -51 9 6 0 45 -11 45 -5 0 -15 3 -24 6
-9 3 -16 3 -16 0z"/>
<path d="M572 2520 c3 -70 -28 -140 -54 -124 -13 8 -9 -31 7 -69 17 -40 56
-87 74 -87 9 0 9 -5 1 -20 -6 -11 -16 -18 -22 -14 -19 12 -3 -33 62 -171 70
-150 121 -248 154 -294 17 -24 39 -58 50 -75 10 -17 21 -33 25 -36 3 -3 12
-17 20 -32 7 -14 30 -47 50 -72 20 -25 47 -61 61 -81 28 -40 90 -92 90 -75 0
6 5 8 10 5 8 -5 8 -11 0 -20 -8 -10 1 -27 42 -72 97 -108 278 -271 383 -344
71 -50 76 -52 70 -37 -7 18 10 42 24 34 6 -4 9 -17 5 -30 -3 -15 2 -28 16 -41
62 -57 362 -220 386 -211 8 3 14 1 14 -4 0 -16 126 -74 144 -67 21 8 22 57 1
57 -8 0 -15 5 -15 11 0 7 -8 18 -17 25 -17 13 -17 13 0 14 34 0 7 18 -127 83
-162 80 -357 200 -486 300 -55 43 -68 49 -116 50 -54 3 -82 16 -70 36 4 6 19
11 34 11 24 0 25 1 10 16 -12 12 -20 14 -36 5 -32 -17 -40 -13 -14 7 l24 19
-68 64 c-77 73 -78 75 -171 189 -79 97 -208 281 -248 355 -16 28 -38 65 -50
83 -19 28 -24 31 -35 17 -7 -9 -15 -13 -18 -10 -3 3 2 13 10 22 15 16 15 21 0
56 -13 29 -22 37 -43 37 -27 0 -27 1 -16 37 9 28 9 37 -1 41 -7 2 -12 14 -12
27 0 25 -22 49 -35 37 -4 -4 -5 6 -2 22 3 18 -5 54 -20 95 -14 36 -32 89 -40
116 -8 28 -23 73 -34 100 -18 48 -19 49 -17 15z m583 -1159 c3 -5 1 -12 -4
-15 -5 -3 -11 1 -15 9 -6 16 9 21 19 6z m149 -174 c18 -13 18 -14 1 -21 -10
-3 -24 -1 -31 5 -32 26 -3 40 30 16z m816 -517 c0 -5 -7 -10 -15 -10 -8 0 -15
5 -15 10 0 6 7 10 15 10 8 0 15 -4 15 -10z"/>
<path d="M6355 2530 c-3 -5 -1 -10 4 -10 6 0 11 5 11 10 0 6 -2 10 -4 10 -3 0
-8 -4 -11 -10z"/>
<path d="M5884 2519 c-3 -5 -13 -9 -22 -8 -46 4 -50 -1 -82 -98 -55 -167 -99
-272 -178 -433 -42 -85 -80 -157 -83 -160 -4 -3 -10 -20 -14 -37 -3 -18 -12
-33 -19 -33 -7 0 -39 -37 -71 -82 -72 -102 -158 -213 -197 -254 -27 -29 -33
-49 -37 -114 l-2 -25 -19 23 -20 24 -70 -70 c-78 -77 -85 -99 -43 -138 25 -23
27 -23 47 -7 62 51 270 271 341 360 95 120 116 154 97 160 -6 3 -9 9 -6 15 4
6 0 14 -7 19 -12 8 -11 12 4 23 9 7 17 18 17 24 0 6 18 13 40 17 22 4 40 12
40 19 0 7 10 25 23 39 33 39 64 100 52 104 -36 12 -36 21 -3 55 18 20 41 38
51 41 17 6 56 83 97 189 15 41 16 49 4 59 -12 10 -11 14 8 23 17 8 30 34 51
96 37 115 44 165 23 173 -8 3 -18 2 -22 -4z m-579 -1079 c3 -5 -1 -10 -9 -10
-9 0 -16 5 -16 10 0 6 4 10 9 10 6 0 13 -4 16 -10z m-55 -95 c0 -15 -6 -25
-14 -25 -19 0 -29 17 -16 25 6 4 8 11 5 16 -4 5 1 9 9 9 10 0 16 -9 16 -25z
m-116 -161 c-12 -17 -20 -22 -27 -15 -8 8 -5 15 9 26 29 22 36 18 18 -11z
m-98 -14 c-1 -30 -10 -38 -21 -20 -4 7 14 50 21 50 1 0 1 -13 0 -30z"/>
<path d="M6035 2050 c-3 -5 -1 -10 4 -10 6 0 11 5 11 10 0 6 -2 10 -4 10 -3 0
-8 -4 -11 -10z"/>
<path d="M4980 1089 c0 -6 -7 -8 -16 -5 -8 3 -28 -4 -44 -15 -16 -12 -36 -19
-44 -16 -12 5 -16 0 -16 -19 0 -19 -4 -25 -15 -20 -17 6 -35 -22 -40 -62 -1
-15 -3 -30 -4 -34 0 -5 -11 -8 -23 -8 -21 1 -21 2 -5 11 9 5 17 17 17 26 0 12
-3 13 -14 4 -10 -9 -15 -8 -20 4 -7 20 -46 20 -46 -1 0 -8 -5 -12 -11 -9 -6 4
-27 -6 -47 -22 -20 -17 -57 -39 -82 -50 -45 -20 -83 -53 -61 -53 19 0 12 -17
-9 -23 -10 -3 -18 -1 -17 3 1 4 -2 8 -8 8 -5 0 -9 -4 -8 -9 2 -4 -4 -6 -12 -3
-19 8 -19 -3 0 -22 8 -9 15 -11 15 -6 0 5 11 7 25 4 18 -3 25 0 25 11 0 26 18
29 42 7 13 -11 24 -16 26 -10 2 5 7 8 12 5 12 -8 72 15 108 42 27 20 30 27 22
44 -9 16 -7 19 9 19 15 0 19 -5 15 -17 -5 -15 -2 -14 13 3 10 11 30 24 44 27
14 4 63 37 110 74 72 58 81 68 61 71 l-23 4 28 24 c22 19 24 24 11 24 -10 0
-18 -5 -18 -11z m-130 -108 c0 -6 -4 -13 -10 -16 -5 -3 -10 1 -10 9 0 9 5 16
10 16 6 0 10 -4 10 -9z m-180 -92 c0 -5 5 -7 12 -3 7 4 8 3 4 -4 -4 -7 -2 -12
4 -12 6 0 8 -4 5 -10 -3 -5 -11 -10 -16 -10 -6 0 -7 5 -4 10 4 7 -2 9 -18 5
-28 -7 -47 12 -26 26 19 12 39 11 39 -2z"/>
<path d="M5005 1070 c-3 -5 -1 -10 4 -10 6 0 11 5 11 10 0 6 -2 10 -4 10 -3 0
-8 -4 -11 -10z"/>
<path d="M4786 1007 c-16 -12 -16 -15 -3 -26 13 -10 16 -8 22 9 9 28 3 33 -19
17z"/>
<path d="M4390 769 c-21 -12 -26 -17 -12 -14 12 4 22 2 22 -3 0 -5 -10 -14
-22 -21 -23 -11 -23 -11 2 -5 42 10 44 10 55 -13 10 -23 35 -32 35 -13 0 8
-40 91 -44 90 0 -1 -17 -10 -36 -21z"/>
<path d="M4243 703 c-14 -5 0 -24 27 -36 8 -4 3 -5 -12 -3 -15 1 -29 0 -30 -4
-3 -8 -30 -13 -61 -11 -10 0 -16 5 -13 10 4 5 -3 7 -13 4 -17 -4 -18 -8 -8
-24 9 -15 9 -24 -1 -40 -10 -15 -10 -24 -2 -34 13 -16 61 -3 120 34 19 11 42
21 51 21 20 0 61 35 52 44 -3 3 11 6 33 7 39 1 39 1 12 12 -16 6 -28 14 -28
19 0 9 -107 10 -127 1z m67 -23 c0 -11 -4 -20 -8 -20 -4 0 -8 9 -8 20 0 11 4
20 8 20 4 0 8 -9 8 -20z m-40 -55 c0 -2 -9 -9 -20 -15 -16 -9 -18 -8 -14 5 5
13 34 22 34 10z"/>
<path d="M2210 670 c0 -5 7 -10 15 -10 8 0 24 -9 35 -20 11 -11 25 -20 30 -20
6 0 10 -7 10 -16 0 -14 3 -14 15 -4 21 17 20 -4 -1 -29 -10 -11 -23 -17 -30
-14 -8 3 -14 1 -14 -5 0 -13 199 -76 320 -101 52 -11 131 -22 175 -25 44 -3
98 -8 120 -10 31 -5 34 -4 15 3 l-25 9 28 1 c22 1 27 6 27 26 0 14 5 25 10 25
6 0 10 5 10 12 0 9 -3 9 -12 0 -16 -16 -28 -15 -28 1 0 9 -38 21 -117 36 -65
13 -174 36 -243 53 -69 16 -132 31 -141 32 -16 2 -51 15 -131 47 -53 21 -68
23 -68 9z m543 -170 c4 -15 0 -20 -14 -20 -21 0 -22 1 -13 24 8 22 21 20 27
-4z"/>
<path d="M4002 620 c-46 -15 -85 -30 -88 -33 -3 -3 2 -17 11 -31 9 -14 17 -29
17 -33 1 -16 10 -33 19 -33 4 0 20 11 35 25 30 27 66 36 45 11 -10 -12 -8 -13
9 -9 26 7 31 16 35 62 1 21 5 43 9 49 13 21 -11 19 -92 -8z"/>
<path d="M3745 552 c-16 -2 -55 -11 -85 -19 -30 -8 -77 -16 -105 -17 -34 -1
-49 -5 -47 -13 1 -7 -5 -13 -13 -13 -8 0 -15 3 -15 8 0 4 -116 7 -259 7 -224
0 -258 -2 -256 -15 1 -9 13 -15 30 -15 16 -1 31 -7 33 -14 2 -7 -3 -11 -14 -9
-11 2 -19 -3 -19 -12 -1 -8 -7 -14 -14 -12 -7 1 -22 0 -34 -4 -38 -12 7 -24
100 -27 81 -2 88 0 85 17 -2 11 1 16 10 14 7 -3 12 -13 10 -22 -5 -27 310 -15
493 19 77 15 161 30 187 34 26 4 50 10 52 12 10 9 -7 49 -20 49 -7 0 -18 8
-23 18 -7 10 -11 12 -11 4 0 -13 -38 -8 -50 7 -3 3 -18 4 -35 3z m-51 -44 c-3
-4 -11 -5 -19 -1 -21 7 -19 12 4 10 11 0 18 -5 15 -9z m42 -22 c1 -9 -4 -12
-12 -9 -8 3 -14 15 -14 26 0 16 3 18 12 9 6 -6 13 -18 14 -26z m-739 -2 c-3
-3 -12 -4 -19 -1 -8 3 -5 6 6 6 11 1 17 -2 13 -5z m441 -1 c-10 -2 -26 -2 -35
0 -10 3 -2 5 17 5 19 0 27 -2 18 -5z"/>
</g>
</svg>
